# xmcd
#
# Track frame offsets: 
#        150
#        12922
#        25435
#        39130
#        54387
#        72100
#        86915
#        99167
#        114150
#        129140
#
# Disc length: 1939 seconds
#
# Revision: 2
# Processed by: cddbd v1.5.1PL0 Copyright (c) Steve Scherf et al.
# Submitted via: ExactAudioCopy v0.95a5
#
DISCID=6d07910a
DTITLE=Various Artist - Country Classics, Vol. 5 (1985-1986)
DYEAR=1988
DGENRE=Country
TTITLE0=George Strait - The Chair
TTITLE1=Reba McEntire - Have I Got A Deal For You
TTITLE2=Lee Greenwood - Hearts Aern't Made To Break (They're Made To L
TTITLE2=ove)
TTITLE3=John Schneider - It's A Short Walk From Heaven To Hell
TTITLE4=Nicolette Larson - Let Me Be The First
TTITLE5=Steve Wariner - Life's Highway
TTITLE6=Waylon Jennings - Working Without A Net
TTITLE7=Barbara Mandrell - Angel In Your Arms
TTITLE8=Mac Davis - I Never Made Love (Till I Made It With You)
TTITLE9=Steve Earle - Hillbilly Highway
EXTD=(c)1988 MCA Records Inc.\nupc 076731125527\nMCAD-31255\n\nCompile
EXTD=d by Chip Hardy\n
EXTT0=
EXTT1=
EXTT2=
EXTT3=
EXTT4=
EXTT5=
EXTT6=
EXTT7=
EXTT8=
EXTT9=
PLAYORDER=
